# AST/ASF file generated using VICON BodyLanguage
# -----------------------------------------------
:version 1.10
:name VICON
:units
  mass 1.0
  length 0.45
  angle deg
:documentation
   .ast/.asf automatically generated from VICON data using
   VICON BodyBuilder and BodyLanguage model FoxedUp or BRILLIANT.MOD
:root
   order TX TY TZ RX RY RZ
   axis XYZ
   position 0 0 0  
   orientation 0 0 0 
:bonedata
  begin
     id 1 
     name lhipjoint
     direction 0.627457 -0.725269 0.283342 
     length 2.53237 
     axis 0 0 0  XYZ
  end
  begin
     id 2 
     name lfemur
     direction 0.34202 -0.939693 0  
     length 7.32496  
     axis 0 0 20  XYZ
    dof rx ry rz
    limits (-160.0 20.0)
           (-70.0 70.0)
           (-60.0 70.0)
  end
  begin
     id 3 
     name ltibia
     direction 0.34202 -0.939693 0   
     length 7.69674   
     axis 0 0 20   XYZ
    dof rx
    limits (-10.0 170.0)
  end
  begin
     id 4 
     name lfoot
     direction 0.127289 -0.349722 0.928166   
     length 1.8612   
     axis -90 7.62852e-016 20   XYZ
    dof rx rz
    limits (-45.0 90.0)
           (-70.0 20.0)
  end
  begin
     id 5 
     name ltoes
     direction 1.53561e-011 -4.21864e-011 1   
     length 0.925608   
     axis -90 7.62852e-016 20   XYZ
    dof rx
    limits (-90.0 20.0)
  end
  begin
     id 6 
     name rhipjoint
     direction -0.609094 -0.738725 0.288599   
     length 2.48624  
     axis 0 0 0  XYZ 
  end
  begin
     id 7 
     name rfemur
     direction -0.34202 -0.939693 0   
     length 7.44259   
     axis 0 0 -20   XYZ
    dof rx ry rz
    limits (-160.0 20.0)
           (-70.0 70.0)
           (-70.0 60.0)
  end
  begin
     id 8 
     name rtibia
     direction -0.34202 -0.939693 0   
     length 7.7781   
     axis 0 0 -20   XYZ
    dof rx
    limits (-10.0 170.0)
 end
 begin
     id 9 
     name rfoot
     direction -0.107015 -0.294021 0.949789   
     length 2.14741  
     axis -90 -7.62852e-016 -20   XYZ
    dof rx rz
    limits (-45.0 90.0)
           (-20.0 70.0)
  end
  begin
     id 10 
     name rtoes
     direction -1.53497e-011 -4.21924e-011 1   
     length 1.0706   
     axis -90 -7.62852e-016 -20   XYZ
    dof rx
    limits (-90.0 20.0)
  end
  begin
     id 11 
     name lowerback
     direction -0.0142066 0.998112 -0.0597545   
     length 1.86627   
     axis 0 0 0   XYZ
    dof rx ry rz
    limits (-20.0 45.0)
           (-30.0 30.0)
           (-30.0 30.0)
  end
  begin
     id 12 
     name upperback
     direction 0.00547294 0.999744 0.0219437   
     length 1.86272   
     axis 0 0 0   XYZ
    dof rx ry rz
    limits (-20.0 45.0)
           (-30.0 30.0)
           (-30.0 30.0)
  end
  begin
     id 13 
     name thorax
     direction 0.0116162 0.998704 0.0495538   
     length 1.8703   
     axis 0 0 0   XYZ
    dof rx ry rz
    limits (-20.0 45.0)
           (-30.0 30.0)
           (-30.0 30.0)
  end
  begin
     id 14 
     name lowerneck
     direction -0.0106574 0.998739 0.0490586   
     length 1.8074   
     axis 0 0 0   XYZ
    dof rx ry rz
    limits (-20.0 45.0)
           (-30.0 30.0)
           (-30.0 30.0)
  end
  begin
     id 15 
     name upperneck
     direction 0.030527 0.976587 -0.212944   
     length 1.80681   
     axis 0 0 0   XYZ
    dof rx ry rz
    limits (-20.0 45.0)
           (-30.0 30.0)
           (-30.0 30.0)
  end
  begin
     id 16
     name head
     direction 0.00869225 0.997035 -0.0764531  
     length 1.8313  
     axis 0 0 0   XYZ
    dof rx ry rz
    limits (-20.0 45.0)
           (-30.0 30.0)
           (-30.0 30.0)
  end
  begin
     id 17 
     name lclavicle
     direction 0.915958 0.399447 0.0382386  
     length 3.78965  
     axis 0 0 0   XYZ
    dof ry rz
    limits (-20.0 10.0)
           (0.0 20.0)
  end
  begin
     id 18 
     name lhumerus
     direction 1 -4.48967e-011 3.19303e-027   
     length 4.78095   
     axis -180 -30 -90   XYZ
    dof rx ry rz
    limits (-60.0 90.0)
           (-90.0 90.0)
           (-90.0 90.0)
  end
  begin
     id 19
     name lradius
     direction 1 -4.48967e-011 -3.77974e-027   
     length 3.58615   
     axis -180 -30 -90   XYZ
    dof rx
    limits (-10.0 170.0)
  end
  begin
     id 20
     name lwrist
     direction 1 -4.48927e-011 1.2807e-027   
     length 1.79307   
     axis 1.91374e-015 90 90   XYZ
    dof ry
    limits (-180.0 0.0)
 end
  begin
     id 21 
     name lhand
     direction 1 -4.49036e-011 2.5614e-027   
     length 0.659812   
     axis -1.63439e-015 90 90   XYZ
    dof rx rz
    limits (-90.0 90.0)
           (-45.0 45.0)
  end
  begin
     id 22 
     name lfingers
     direction 1 -4.49052e-011 5.1228e-027   
     length 0.531957   
     axis -3.26879e-015 90 90   XYZ
    dof rx
    limits (0.0 90.0)
  end
  begin
     id 23
     name lthumb
     direction 0.707107 -6.35012e-011 0.707107   
     length 0.763787   
     axis -90 45 2.85299e-015   XYZ
    dof rx rz
    limits (-45.0 45.0)
           (-45.0 45.0)
  end
  begin
     id 24 
     name rclavicle
     direction -0.895351 0.435135 0.0948887   
     length 3.70497  
     axis 0 0 0   XYZ 
    dof ry rz
    limits (-10.0 20.0)
           (-20.0 0.0)
  end
  begin
     id 25 
     name rhumerus
     direction -1 -4.48971e-011 2.38946e-027  
     length 4.48913   
     axis -180 30 90   XYZ
    dof rx ry rz
    limits (-90.0 60.0)
           (-90.0 90.0)
           (-90.0 90.0)
  end
  begin
     id 26 
     name rradius
     direction -1 -4.4895e-011 4.38668e-027   
     length 3.7051   
     axis -180 30 90   XYZ
    dof rx
    limits (-10.0 170.0)
  end
  begin
     id 27 
     name rwrist
     direction -1 -4.49007e-011 1.2807e-027   
     length 1.85255   
     axis 1.91374e-015 -90 -90   XYZ
    dof ry
    limits (-180.0 0.0)
  end
  begin
     id 28
     name rhand
     direction -1 -4.48851e-011 2.5614e-027   
     length 0.449136   
     axis -1.63439e-015 -90 -90   XYZ
    dof rx rz
    limits (-90.0 90.0)
           (-45.0 45.0)
  end
  begin
     id 29
     name rfingers
     direction -1 -4.49128e-011 5.1228e-027   
     length 0.362105   
     axis -3.26879e-015 -90 -90   XYZ
    dof rx
    limits (0.0 90.0)
  end
  begin
     id 30
     name rthumb
     direction -0.707107 -6.34851e-011 0.707107   
     length 0.519912   
     axis -90 -45 -2.85299e-015   XYZ
    dof rx rz
    limits (-45.0 45.0)
           (-45.0 45.0)
  end
:hierarchy
  begin
    root lhipjoint rhipjoint lowerback
    lhipjoint lfemur
    lfemur ltibia
    ltibia lfoot
    lfoot ltoes
    rhipjoint rfemur
    rfemur rtibia
    rtibia rfoot
    rfoot rtoes
    lowerback upperback
    upperback thorax
    thorax lowerneck lclavicle rclavicle
    lowerneck upperneck
    upperneck head
    lclavicle lhumerus
    lhumerus lradius
    lradius lwrist
    lwrist lhand lthumb
    lhand lfingers
    rclavicle rhumerus
    rhumerus rradius
    rradius rwrist
    rwrist rhand rthumb
    rhand rfingers
  end

#!OML:ASF I:\Actors\actors\Patient Classification 2\Patient 1\Session 1\actor1.ASF
:FULLY-SPECIFIED
:DEGREES
26
root -0.924471 18.5963 6.02551 -1.63535 -1.63689 -3.33487
lowerback 9.5344 1.32355 -0.0631484
upperback -1.45513 1.81673 0.854253
thorax -6.91654 0.910473 0.653678
lowerneck -11.846 -2.40962 -0.717871
upperneck 24.5974 -4.08678 3.2701
head 9.82991 -1.59565 0.77523
rclavicle -1.90398e-014 -8.94531e-015
rhumerus -48.0924 -3.64544 -86.206
rradius 42.2043
rwrist 17.5939
rhand -7.80161 -28.7998
rfingers 7.12502
rthumb 18.0997 -57.9776
lclavicle -1.90398e-014 -8.94531e-015
lhumerus -41.1826 2.1081 90.4346
lradius 36.9116
lwrist -12.4514
lhand -3.8136 -25.7828
lfingers 7.12502
lthumb 21.9329 2.99385
rfemur 11.2849 -5.1957 16.4876
rtibia 1.11319e-014
rfoot -13.3941 -6.68667
rtoes -9.57368
lfemur -2.07812 -4.49648 -10.489
ltibia 23.8485
lfoot -21.7727 9.61999
ltoes -56.6472
27
root -0.92413 18.5962 6.02677 -1.63275 -1.6465 -3.34078
lowerback 9.52313 1.33389 -0.0646871
upperback -1.44491 1.83047 0.858298
thorax -6.89963 0.917355 0.657051
lowerneck -11.8231 -2.42049 -0.746886
upperneck 24.5599 -4.09975 3.29314
head 9.81358 -1.60259 0.786855
rclavicle -3.65733e-015 3.37934e-015
rhumerus -48.0971 -3.69855 -86.1871
rradius 42.2408
rwrist 17.6072
rhand -7.84923 -28.6758
rfingers 7.12502
rthumb 18.0539 -57.8579
lclavicle -3.65733e-015 3.37934e-015
lhumerus -41.1754 2.08492 90.4317
lradius 36.9131
lwrist -12.4302
lhand -3.77741 -25.7643
lfingers 7.12502
lthumb 21.9677 3.00827
rfemur 11.2826 -5.18642 16.4939
rtibia -1.43125e-014
rfoot -13.3872 -6.68969
rtoes -9.61782
lfemur -2.08105 -4.45884 -10.4787
ltibia 23.8566
lfoot -21.7859 9.6146
ltoes -56.6663
28
root -0.92337 18.5953 6.02737 -1.64466 -1.66309 -3.34628
lowerback 9.53457 1.34509 -0.0460899
upperback -1.42862 1.84666 0.845756
thorax -6.88805 0.92424 0.630867
lowerneck -11.7775 -2.41473 -0.704228
upperneck 24.5006 -4.09894 3.29572
head 9.78283 -1.59946 0.781136
rclavicle 9.85382e-015 -3.18055e-015
rhumerus -48.0981 -3.74005 -86.191
rradius 42.2456
rwrist 17.6301
rhand -7.86166 -28.5675
rfingers 7.12502
rthumb 18.0419 -57.7507
lclavicle 9.85382e-015 -3.18055e-015
lhumerus -41.158 2.06942 90.4056
lradius 36.9198
lwrist -12.45
lhand -3.70783 -25.688
lfingers 7.12502
lthumb 22.0345 3.07676
rfemur 11.2945 -5.16871 16.4939
rtibia 1.11319e-014
rfoot -13.4066 -6.65877
rtoes -9.33094
lfemur -2.07644 -4.39288 -10.4651
ltibia 23.8675
lfoot -21.7706 9.57973
ltoes -56.685
29
root -0.922473 18.5948 6.02827 -1.65187 -1.66916 -3.36566
lowerback 9.54276 1.33782 -0.0186746
upperback -1.41831 1.83999 0.843403
thorax -6.8807 0.919823 0.613945
lowerneck -11.7574 -2.39826 -0.662258
upperneck 24.4818 -4.08278 3.29023
head 9.77094 -1.5893 0.774286
rclavicle 3.3079e-015 -9.14409e-015
rhumerus -48.0887 -3.71088 -86.2229
rradius 42.2448
rwrist 17.6216
rhand -7.85003 -28.6224
rfingers 7.12502
rthumb 18.0531 -57.8045
lclavicle 3.3079e-015 -9.14409e-015
lhumerus -41.1587 2.12029 90.3598
lradius 36.9277
lwrist -12.516
lhand -3.66908 -25.6338
lfingers 7.12502
lthumb 22.0717 3.12656
rfemur 11.3041 -5.16288 16.5137
rtibia -1.90833e-014
rfoot -13.394 -6.6691
rtoes -9.50316
lfemur -2.07373 -4.32764 -10.4344
ltibia 23.8777
lfoot -21.7455 9.51455
ltoes -56.6462
30
root -0.921601 18.5945 6.02897 -1.64016 -1.67188 -3.37682
lowerback 9.54122 1.34054 0.00181562
upperback -1.42978 1.84579 0.837634
thorax -6.89123 0.921744 0.595372
lowerneck -11.6983 -2.40461 -0.6397
upperneck 24.4611 -4.09539 3.28954
head 9.75207 -1.59425 0.769424
rclavicle -2.08196e-014 2.78299e-015
rhumerus -48.1093 -3.69409 -86.2465
rradius 42.2565
rwrist 17.5936
rhand -7.87181 -28.7091
rfingers 7.12502
rthumb 18.0322 -57.8932
lclavicle -2.08196e-014 2.78299e-015
lhumerus -41.2032 2.09883 90.3456
lradius 36.9569
lwrist -12.5244
lhand -3.67378 -25.5839
lfingers 7.12502
lthumb 22.0672 3.177
rfemur 11.2923 -5.16122 16.5264
rtibia 1.59028e-014
rfoot -13.3761 -6.69277
rtoes -9.72755
lfemur -2.0839 -4.27905 -10.4176
ltibia 23.8826
lfoot -21.7372 9.4509
ltoes -56.6097
31
root -0.92066 18.5942 6.02992 -1.63677 -1.68621 -3.35983
lowerback 9.55446 1.35548 0.00907911
upperback -1.43706 1.86538 0.817742
thorax -6.90584 0.930601 0.566986
lowerneck -11.6624 -2.41853 -0.617423
upperneck 24.4439 -4.12196 3.30108
head 9.73955 -1.60396 0.766931
rclavicle -2.47968e-014 -5.1684e-015
rhumerus -48.1581 -3.73642 -86.2555
rradius 42.31
rwrist 17.6055
rhand -7.87731 -28.7408
rfingers 7.12502
rthumb 18.0269 -57.9254
lclavicle -2.47968e-014 -5.1684e-015
lhumerus -41.2321 2.04587 90.3392
lradius 36.978
lwrist -12.511
lhand -3.70178 -25.5775
lfingers 7.12502
lthumb 22.0403 3.18656
rfemur 11.2912 -5.14586 16.5027
rtibia 3.18055e-015
rfoot -13.3884 -6.68067
rtoes -9.56597
lfemur -2.07547 -4.24933 -10.4414
ltibia 23.8807
lfoot -21.7275 9.44239
ltoes -56.6262
32
root -0.919651 18.5946 6.03112 -1.64238 -1.69742 -3.33022
lowerback 9.57332 1.36135 0.0044958
upperback -1.43316 1.87136 0.798192
thorax -6.912 0.933247 0.547719
lowerneck -11.6875 -2.41213 -0.582759
upperneck 24.458 -4.11884 3.29113
head 9.74839 -1.59987 0.757687
rclavicle -5.58616e-015 1.19271e-015
rhumerus -48.1828 -3.76504 -86.2813
rradius 42.3475
rwrist 17.6227
rhand -7.85544 -28.7773
rfingers 7.12502
rthumb 18.0479 -57.96
lclavicle -5.58616e-015 1.19271e-015
lhumerus -41.2228 2.05909 90.3138
lradius 36.9473
lwrist -12.5479
lhand -3.7542 -25.5956
lfingers 7.12502
lthumb 21.99 3.17439
rfemur 11.2996 -5.13263 16.4647
rtibia 0
rfoot -13.3876 -6.67326
rtoes -9.49894
lfemur -2.05818 -4.21726 -10.4776
ltibia 23.8756
lfoot -21.6993 9.45666
ltoes -56.6293
